<?xml version="1.0" encoding="UTF-8"?>
<svg id="Layer_1" data-name="Layer 1" xmlns="http://www.w3.org/2000/svg" viewBox="0 0 217.96 52.18">
  <path d="M5.86,29.33c.1,5.71,3.74,8.07,7.97,8.07,3.02,0,4.85-.53,6.43-1.2l.72,3.02c-1.49.67-4.03,1.44-7.73,1.44-7.15,0-11.42-4.71-11.42-11.71s4.13-12.53,10.9-12.53c7.58,0,9.6,6.67,9.6,10.95,0,.86-.1,1.54-.14,1.97H5.86ZM18.24,26.3c.05-2.69-1.1-6.86-5.86-6.86-4.27,0-6.14,3.94-6.48,6.86h12.34Z" fill="#f7931e"/>
  <path d="M29.18,16.94l4.56,13.06c.77,2.11,1.39,4.03,1.87,5.95h.14c.53-1.92,1.2-3.84,1.97-5.95l4.51-13.06h4.42l-9.12,23.23h-4.03l-8.83-23.23h4.51Z" fill="#f7931e"/>
  <path d="M52.51,29.33c.1,5.71,3.74,8.07,7.97,8.07,3.02,0,4.85-.53,6.43-1.2l.72,3.02c-1.49.67-4.03,1.44-7.73,1.44-7.15,0-11.42-4.71-11.42-11.71s4.13-12.53,10.9-12.53c7.58,0,9.6,6.67,9.6,10.95,0,.86-.1,1.54-.14,1.97h-16.32ZM64.9,26.3c.05-2.69-1.1-6.86-5.86-6.86-4.27,0-6.14,3.94-6.48,6.86h12.34Z" fill="#f7931e"/>
  <path d="M74.21,24.19c0-2.74-.05-5.09-.19-7.25h3.7l.14,4.56h.19c1.06-3.12,3.6-5.09,6.43-5.09.48,0,.82.05,1.2.14v3.98c-.43-.1-.86-.14-1.44-.14-2.98,0-5.09,2.26-5.66,5.42-.1.58-.19,1.25-.19,1.97v12.38h-4.18v-15.99Z" fill="#f7931e"/>
  <path d="M89.9,40.18c.1-1.58.19-3.94.19-6V6.09h4.18v14.59h.1c1.49-2.59,4.18-4.27,7.92-4.27,5.76,0,9.84,4.8,9.79,11.86,0,8.3-5.23,12.43-10.42,12.43-3.36,0-6.05-1.29-7.78-4.37h-.14l-.19,3.84h-3.65ZM94.27,30.86c0,.53.1,1.06.19,1.54.82,2.93,3.26,4.95,6.34,4.95,4.42,0,7.06-3.6,7.06-8.93,0-4.66-2.4-8.64-6.91-8.64-2.88,0-5.57,1.97-6.43,5.18-.1.48-.24,1.06-.24,1.73v4.18Z" fill="#006837"/>
  <path d="M117.41,6.09h4.22v34.08h-4.22V6.09Z" fill="#006837"/>
  <path d="M149.76,28.37c0,8.59-5.95,12.34-11.57,12.34-6.29,0-11.14-4.61-11.14-11.95,0-7.78,5.09-12.34,11.52-12.34s11.19,4.85,11.19,11.95ZM131.33,28.61c0,5.09,2.93,8.93,7.06,8.93s7.06-3.79,7.06-9.02c0-3.94-1.97-8.93-6.96-8.93s-7.15,4.61-7.15,9.03Z" fill="#006837"/>
  <path d="M176.11,28.37c0,8.59-5.95,12.34-11.57,12.34-6.29,0-11.14-4.61-11.14-11.95,0-7.78,5.09-12.34,11.52-12.34s11.19,4.85,11.19,11.95ZM157.68,28.61c0,5.09,2.93,8.93,7.06,8.93s7.06-3.79,7.06-9.02c0-3.94-1.97-8.93-6.96-8.93s-7.15,4.61-7.15,9.03Z" fill="#006837"/>
  <path d="M181.44,23.23c0-2.4-.05-4.37-.19-6.29h3.7l.19,3.74h.14c1.3-2.21,3.46-4.27,7.3-4.27,3.17,0,5.57,1.92,6.58,4.66h.1c.72-1.3,1.63-2.3,2.59-3.02,1.39-1.06,2.93-1.63,5.14-1.63,3.07,0,7.63,2.02,7.63,10.08v13.68h-4.13v-13.15c0-4.46-1.63-7.15-5.04-7.15-2.4,0-4.27,1.78-4.99,3.84-.19.58-.34,1.34-.34,2.11v14.35h-4.13v-13.92c0-3.7-1.63-6.38-4.85-6.38-2.64,0-4.56,2.11-5.23,4.22-.24.62-.34,1.34-.34,2.06v14.02h-4.13v-16.95Z" fill="#006837"/>
</svg>